<svg width="47" height="47" viewBox="0 0 47 47" fill="none" xmlns="http://www.w3.org/2000/svg">
<path d="M29.5476 30.6035L31.643 35.1135C31.643 35.1135 41.0715 37.116 41.0715 41.8788C41.0715 45.2614 36.881 45.2614 36.881 45.2614H25.7064L20.2064 42.2058" stroke="#8DB689" stroke-width="2.5233" stroke-linecap="round" stroke-linejoin="round"/>
<path d="M16.9762 30.6035L14.881 35.1135C14.881 35.1135 5.45239 37.116 5.45239 41.8788C5.45239 45.2614 9.64285 45.2614 9.64285 45.2614H14.7063L20.2064 42.2058L26.9286 37.928" stroke="#8DB689" stroke-width="2.5233" stroke-linecap="round" stroke-linejoin="round"/>
<path d="M1.26196 32.8582C1.26196 32.8582 6.50006 31.7308 9.64291 30.6032C12.7858 14.8178 22.2143 15.9454 23.262 15.9454C24.3097 15.9454 33.7381 14.8178 36.8809 30.6032C40.0238 31.7308 45.262 32.8582 45.262 32.8582" stroke="#8DB689" stroke-width="2.5233" stroke-linecap="round" stroke-linejoin="round"/>
<path d="M23.2619 11.0395C25.9621 11.0395 28.1508 8.85067 28.1508 6.15061C28.1508 3.45055 25.9621 1.26172 23.2619 1.26172C20.5618 1.26172 18.373 3.45055 18.373 6.15061C18.373 8.85067 20.5618 11.0395 23.2619 11.0395Z" stroke="#8DB689" stroke-width="2.5233" stroke-linecap="round" stroke-linejoin="round"/>
</svg>
