<svg width="49" height="49" viewBox="0 0 49 49" fill="none" xmlns="http://www.w3.org/2000/svg">
<path d="M26.5703 25.2119C27.3329 23.6566 29.187 23.0217 30.707 23.8135C32.2216 24.6022 32.8238 26.5074 32.0635 28.0596C31.5241 29.1598 30.44 29.7988 29.3125 29.7988C28.8448 29.7988 28.3708 29.6893 27.9268 29.458C27.1931 29.0758 26.6488 28.422 26.3936 27.6211C26.1385 26.8208 26.2014 25.9645 26.5703 25.2119ZM29.3193 24.9824C28.739 24.9826 28.1758 25.3121 27.8936 25.8877C27.4924 26.706 27.8151 27.7034 28.5996 28.1123C28.9801 28.3103 29.41 28.3439 29.8125 28.207H29.8135C30.2173 28.07 30.5467 27.779 30.7402 27.3838C31.141 26.5652 30.8184 25.5677 30.0342 25.1592C29.8041 25.0394 29.5595 24.9824 29.3193 24.9824Z" fill="#4A90E2" stroke="#4A90E2" stroke-width="0.5"/>
<path d="M20.8311 21.9238C21.5246 20.8081 22.9484 20.3848 24.1279 20.999C25.3825 21.6526 25.8798 23.2284 25.251 24.5117C24.9459 25.1343 24.4216 25.6008 23.7744 25.8203C23.5128 25.9089 23.2431 25.9531 22.9746 25.9531C22.5788 25.9531 22.1865 25.8579 21.8252 25.6699V25.6689C21.218 25.3526 20.7678 24.8115 20.5566 24.1494C20.3457 23.4874 20.3971 22.7789 20.7021 22.1562L20.8311 21.9238ZM23.4551 22.3447C22.9363 22.0748 22.2933 22.2864 22.0254 22.832C21.8954 23.0973 21.8737 23.3987 21.9639 23.6816V23.6826C22.0541 23.9655 22.2441 24.192 22.498 24.3242C22.7515 24.4562 23.0379 24.478 23.3076 24.3867C23.5773 24.2954 23.7977 24.1014 23.9277 23.8359C24.0577 23.5709 24.0796 23.2697 23.9893 22.9863C23.8991 22.7033 23.709 22.4771 23.4551 22.3447Z" fill="#4A90E2" stroke="#4A90E2" stroke-width="0.5"/>
<path d="M9.76172 7.25293C10.8358 5.0601 13.4467 4.1696 15.585 5.2832L24.0576 9.69629C25.2069 7.98031 27.4462 7.34859 29.3105 8.31934C31.1728 9.28975 32.0035 11.52 31.3408 13.4893L42.7461 19.4307C42.9451 19.5344 43.0858 19.7235 43.1328 19.9424C43.1794 20.1609 43.1285 20.3906 42.9922 20.5684L42.4229 21.3115L42.7744 21.4951C43.4688 21.8567 43.9765 22.4834 44.207 23.2529C44.4356 24.0152 44.3656 24.8325 44.0127 25.5527L39.874 33.9971C39.521 34.7174 38.923 35.2627 38.1875 35.5273H38.1865C37.8738 35.6397 37.5513 35.6963 37.2305 35.6963C36.7902 35.6963 36.3557 35.5904 35.9551 35.3818L32.873 33.7764L32.127 34.751C31.9837 34.9379 31.7671 35.041 31.5439 35.041C31.4297 35.041 31.3149 35.0136 31.208 34.958L25.3701 31.918C23.1167 38.4083 17.2639 42.755 10.5283 42.8623C9.42852 44.5735 7.54756 45.7138 5.40234 45.7139C4.98655 45.7139 4.66211 45.3688 4.66211 44.959V33.7998C4.66211 33.39 4.98655 33.0449 5.40234 33.0449C8.11824 33.045 10.4175 34.8651 11.2334 37.3721C15.498 36.6489 19.0428 33.5843 20.4805 29.3701L7.16504 22.4346C5.03278 21.3236 4.18148 18.639 5.25391 16.4502L5.97852 14.9697C5.46092 14.5404 5.07104 13.9698 4.85938 13.3057C4.57043 12.3987 4.64092 11.429 5.05859 10.5762V10.5752C5.4766 9.72247 6.19418 9.08507 7.0791 8.78516C7.72321 8.56625 8.39929 8.55129 9.04004 8.72363L9.76172 7.25293ZM6.14258 44.1416C8.36264 43.7747 10.0742 41.7842 10.0742 39.3789C10.074 36.9737 8.36257 34.983 6.14258 34.6162V44.1416ZM21.8086 30.0625C20.1589 34.6746 16.2424 38.0328 11.5273 38.8516C11.5426 39.0241 11.5547 39.1997 11.5547 39.3789C11.5547 40.0541 11.4455 40.7024 11.2539 41.3115C17.1071 40.9136 22.1251 36.9883 24.0439 31.2266L21.8086 30.0625ZM33.8018 32.5635L36.6279 34.0361C36.957 34.2074 37.3345 34.2322 37.6953 34.1025C38.0623 33.9707 38.3674 33.6955 38.5508 33.3213L42.6895 24.877L42.751 24.7344C42.861 24.4459 42.888 24.1373 42.8291 23.8408L42.792 23.6943C42.6773 23.3124 42.4307 23.0112 42.1016 22.8398L41.4941 22.5234L33.8018 32.5635ZM13.6338 6.31348C12.5945 6.31365 11.5887 6.90278 11.0859 7.92871L7.59668 15.0469V15.0479L7.59277 15.0518L7.59375 15.0527L6.57812 17.126C5.86478 18.5812 6.43614 20.3592 7.83887 21.0898L31.3359 33.3291L41.2734 20.3594L14.9121 6.62793C14.5013 6.4141 14.064 6.31348 13.6338 6.31348ZM7.56738 15.0723C7.55394 15.0807 7.535 15.0894 7.5127 15.0996C7.53866 15.0947 7.55874 15.0857 7.57324 15.0752L7.56738 15.0723ZM7.60742 15.0186C7.6068 15.0205 7.60583 15.0234 7.60547 15.0244C7.60483 15.0263 7.60464 15.0279 7.60449 15.0283C7.60464 15.0279 7.60554 15.0251 7.60645 15.0225C7.60708 15.0205 7.60842 15.0159 7.60938 15.0127C7.60952 15.0122 7.60929 15.0111 7.60938 15.0098C7.60837 15.0136 7.60785 15.0172 7.60742 15.0186ZM7.43555 14.8066C7.50529 14.8338 7.5674 14.8833 7.60352 14.9609C7.59653 14.9079 7.57998 14.8235 7.53223 14.7529C7.51047 14.7467 7.48886 14.7425 7.46777 14.7402L7.43555 14.8066ZM8.35156 10.127C8.12934 10.1049 7.90431 10.121 7.68359 10.1777L7.5459 10.2188C7.03887 10.3908 6.62575 10.7556 6.38281 11.251C6.13968 11.7472 6.09811 12.3107 6.2666 12.8389C6.35311 13.11 6.49161 13.3527 6.66992 13.5596L8.35156 10.127ZM28.6367 9.66504C27.5096 9.07763 26.1579 9.40728 25.3916 10.3906L30.0029 12.792C30.311 11.5708 29.7643 10.2524 28.6367 9.66504Z" fill="#4A90E2" stroke="#4A90E2" stroke-width="0.5"/>
</svg>
